<mxfile host="Electron" modified="2024-05-17T18:20:24.837Z" agent="Mozilla/5.0 (Windows NT 10.0; Win64; x64) AppleWebKit/537.36 (KHTML, like Gecko) draw.io/22.0.2 Chrome/114.0.5735.289 Electron/25.8.4 Safari/537.36" etag="Ss6SydqjbM41FZ-0r8G5" version="22.0.2" type="device">
  <diagram id="C5RBs43oDa-KdzZeNtuy" name="Page-1">
    <mxGraphModel dx="1290" dy="621" grid="1" gridSize="10" guides="1" tooltips="1" connect="1" arrows="1" fold="1" page="1" pageScale="1" pageWidth="827" pageHeight="1169" math="0" shadow="0">
      <root>
        <mxCell id="WIyWlLk6GJQsqaUBKTNV-0" />
        <mxCell id="WIyWlLk6GJQsqaUBKTNV-1" parent="WIyWlLk6GJQsqaUBKTNV-0" />
        <mxCell id="liSMyJGj670c1eQbolkF-0" value="Jugador" style="rounded=0;whiteSpace=wrap;html=1;" parent="WIyWlLk6GJQsqaUBKTNV-1" vertex="1">
          <mxGeometry x="350" y="120" width="70" height="30" as="geometry" />
        </mxCell>
        <mxCell id="liSMyJGj670c1eQbolkF-1" value="Item" style="rounded=0;whiteSpace=wrap;html=1;" parent="WIyWlLk6GJQsqaUBKTNV-1" vertex="1">
          <mxGeometry x="685" y="150" width="70" height="30" as="geometry" />
        </mxCell>
        <mxCell id="liSMyJGj670c1eQbolkF-2" value="Habilidad" style="rounded=0;whiteSpace=wrap;html=1;" parent="WIyWlLk6GJQsqaUBKTNV-1" vertex="1">
          <mxGeometry x="40" y="140" width="70" height="30" as="geometry" />
        </mxCell>
        <mxCell id="liSMyJGj670c1eQbolkF-3" value="Alumno" style="rounded=0;whiteSpace=wrap;html=1;" parent="WIyWlLk6GJQsqaUBKTNV-1" vertex="1">
          <mxGeometry x="520" y="380" width="70" height="30" as="geometry" />
        </mxCell>
        <mxCell id="liSMyJGj670c1eQbolkF-4" value="Profesor" style="rounded=0;whiteSpace=wrap;html=1;" parent="WIyWlLk6GJQsqaUBKTNV-1" vertex="1">
          <mxGeometry x="343.5" y="380" width="70" height="30" as="geometry" />
        </mxCell>
        <mxCell id="liSMyJGj670c1eQbolkF-5" value="Padre" style="rounded=0;whiteSpace=wrap;html=1;" parent="WIyWlLk6GJQsqaUBKTNV-1" vertex="1">
          <mxGeometry x="170" y="380" width="70" height="30" as="geometry" />
        </mxCell>
        <mxCell id="nR_B_YQcBqlcYutEYa7W-0" value="id_item&lt;br&gt;nombre&lt;br&gt;poder&lt;br&gt;mejora_combate" style="text;html=1;strokeColor=none;fillColor=none;align=center;verticalAlign=middle;whiteSpace=wrap;rounded=0;" vertex="1" parent="WIyWlLk6GJQsqaUBKTNV-1">
          <mxGeometry x="690" y="200" width="60" height="30" as="geometry" />
        </mxCell>
        <mxCell id="nR_B_YQcBqlcYutEYa7W-1" value="id_habilidad&lt;br&gt;nombre&lt;br&gt;poder&lt;br&gt;penalizacion_defensa&lt;br&gt;probabilidad_critico" style="text;html=1;strokeColor=none;fillColor=none;align=center;verticalAlign=middle;whiteSpace=wrap;rounded=0;" vertex="1" parent="WIyWlLk6GJQsqaUBKTNV-1">
          <mxGeometry x="40" y="200" width="60" height="30" as="geometry" />
        </mxCell>
        <mxCell id="nR_B_YQcBqlcYutEYa7W-2" value="id_jugador&lt;br&gt;nombre&lt;br&gt;vida&lt;br&gt;ataque&lt;br&gt;defensa" style="text;html=1;strokeColor=none;fillColor=none;align=center;verticalAlign=middle;whiteSpace=wrap;rounded=0;" vertex="1" parent="WIyWlLk6GJQsqaUBKTNV-1">
          <mxGeometry x="360" y="50" width="60" height="30" as="geometry" />
        </mxCell>
        <mxCell id="nR_B_YQcBqlcYutEYa7W-3" value="id_padre&lt;br&gt;sexo" style="text;html=1;strokeColor=none;fillColor=none;align=center;verticalAlign=middle;whiteSpace=wrap;rounded=0;" vertex="1" parent="WIyWlLk6GJQsqaUBKTNV-1">
          <mxGeometry x="175" y="420" width="60" height="30" as="geometry" />
        </mxCell>
        <mxCell id="nR_B_YQcBqlcYutEYa7W-4" value="id_profesor&lt;br&gt;asignatura" style="text;html=1;strokeColor=none;fillColor=none;align=center;verticalAlign=middle;whiteSpace=wrap;rounded=0;" vertex="1" parent="WIyWlLk6GJQsqaUBKTNV-1">
          <mxGeometry x="343.5" y="420" width="60" height="30" as="geometry" />
        </mxCell>
        <mxCell id="nR_B_YQcBqlcYutEYa7W-5" value="id_alumno&lt;br&gt;curso" style="text;html=1;strokeColor=none;fillColor=none;align=center;verticalAlign=middle;whiteSpace=wrap;rounded=0;" vertex="1" parent="WIyWlLk6GJQsqaUBKTNV-1">
          <mxGeometry x="530" y="420" width="60" height="30" as="geometry" />
        </mxCell>
        <mxCell id="nR_B_YQcBqlcYutEYa7W-6" value="" style="endArrow=none;html=1;rounded=0;entryX=0;entryY=0.75;entryDx=0;entryDy=0;exitX=1;exitY=0.25;exitDx=0;exitDy=0;" edge="1" parent="WIyWlLk6GJQsqaUBKTNV-1" source="liSMyJGj670c1eQbolkF-0" target="liSMyJGj670c1eQbolkF-1">
          <mxGeometry width="50" height="50" relative="1" as="geometry">
            <mxPoint x="390" y="350" as="sourcePoint" />
            <mxPoint x="440" y="300" as="targetPoint" />
          </mxGeometry>
        </mxCell>
        <mxCell id="nR_B_YQcBqlcYutEYa7W-7" value="" style="endArrow=none;html=1;rounded=0;entryX=0;entryY=0.25;entryDx=0;entryDy=0;exitX=1;exitY=0.5;exitDx=0;exitDy=0;" edge="1" parent="WIyWlLk6GJQsqaUBKTNV-1" source="liSMyJGj670c1eQbolkF-2" target="liSMyJGj670c1eQbolkF-0">
          <mxGeometry width="50" height="50" relative="1" as="geometry">
            <mxPoint x="260" y="240" as="sourcePoint" />
            <mxPoint x="310" y="190" as="targetPoint" />
          </mxGeometry>
        </mxCell>
        <mxCell id="nR_B_YQcBqlcYutEYa7W-12" value="" style="triangle;whiteSpace=wrap;html=1;rotation=90;" vertex="1" parent="WIyWlLk6GJQsqaUBKTNV-1">
          <mxGeometry x="354" y="160" width="60" height="80" as="geometry" />
        </mxCell>
        <mxCell id="nR_B_YQcBqlcYutEYa7W-16" value="" style="ellipse;whiteSpace=wrap;html=1;" vertex="1" parent="WIyWlLk6GJQsqaUBKTNV-1">
          <mxGeometry x="359" y="150" width="50" height="20" as="geometry" />
        </mxCell>
        <mxCell id="nR_B_YQcBqlcYutEYa7W-17" value="" style="endArrow=none;html=1;rounded=0;entryX=1;entryY=0.5;entryDx=0;entryDy=0;exitX=0.619;exitY=-0.053;exitDx=0;exitDy=0;exitPerimeter=0;" edge="1" parent="WIyWlLk6GJQsqaUBKTNV-1" source="liSMyJGj670c1eQbolkF-4" target="nR_B_YQcBqlcYutEYa7W-12">
          <mxGeometry width="50" height="50" relative="1" as="geometry">
            <mxPoint x="390" y="350" as="sourcePoint" />
            <mxPoint x="440" y="300" as="targetPoint" />
          </mxGeometry>
        </mxCell>
        <mxCell id="nR_B_YQcBqlcYutEYa7W-18" value="" style="endArrow=none;html=1;rounded=0;exitX=1;exitY=0.5;exitDx=0;exitDy=0;entryX=0.5;entryY=0;entryDx=0;entryDy=0;" edge="1" parent="WIyWlLk6GJQsqaUBKTNV-1" source="nR_B_YQcBqlcYutEYa7W-12" target="liSMyJGj670c1eQbolkF-5">
          <mxGeometry width="50" height="50" relative="1" as="geometry">
            <mxPoint x="330" y="330" as="sourcePoint" />
            <mxPoint x="210" y="270" as="targetPoint" />
          </mxGeometry>
        </mxCell>
        <mxCell id="nR_B_YQcBqlcYutEYa7W-19" value="" style="endArrow=none;html=1;rounded=0;exitX=0.5;exitY=0;exitDx=0;exitDy=0;entryX=1;entryY=0.5;entryDx=0;entryDy=0;" edge="1" parent="WIyWlLk6GJQsqaUBKTNV-1" source="liSMyJGj670c1eQbolkF-3" target="nR_B_YQcBqlcYutEYa7W-12">
          <mxGeometry width="50" height="50" relative="1" as="geometry">
            <mxPoint x="390" y="350" as="sourcePoint" />
            <mxPoint x="440" y="300" as="targetPoint" />
          </mxGeometry>
        </mxCell>
        <mxCell id="nR_B_YQcBqlcYutEYa7W-20" value="" style="rhombus;whiteSpace=wrap;html=1;" vertex="1" parent="WIyWlLk6GJQsqaUBKTNV-1">
          <mxGeometry x="505" y="120" width="100" height="50" as="geometry" />
        </mxCell>
        <mxCell id="nR_B_YQcBqlcYutEYa7W-24" value="" style="rhombus;whiteSpace=wrap;html=1;" vertex="1" parent="WIyWlLk6GJQsqaUBKTNV-1">
          <mxGeometry x="190" y="120" width="100" height="50" as="geometry" />
        </mxCell>
        <mxCell id="nR_B_YQcBqlcYutEYa7W-25" value="tiene" style="text;html=1;strokeColor=none;fillColor=none;align=center;verticalAlign=middle;whiteSpace=wrap;rounded=0;" vertex="1" parent="WIyWlLk6GJQsqaUBKTNV-1">
          <mxGeometry x="525" y="130" width="60" height="30" as="geometry" />
        </mxCell>
        <mxCell id="nR_B_YQcBqlcYutEYa7W-26" value="tiene" style="text;html=1;strokeColor=none;fillColor=none;align=center;verticalAlign=middle;whiteSpace=wrap;rounded=0;" vertex="1" parent="WIyWlLk6GJQsqaUBKTNV-1">
          <mxGeometry x="210" y="130" width="60" height="30" as="geometry" />
        </mxCell>
        <mxCell id="nR_B_YQcBqlcYutEYa7W-27" value="" style="endArrow=none;html=1;rounded=0;" edge="1" parent="WIyWlLk6GJQsqaUBKTNV-1">
          <mxGeometry width="50" height="50" relative="1" as="geometry">
            <mxPoint x="515" y="434.5" as="sourcePoint" />
            <mxPoint x="595" y="434.5" as="targetPoint" />
          </mxGeometry>
        </mxCell>
        <mxCell id="nR_B_YQcBqlcYutEYa7W-28" value="" style="endArrow=none;html=1;rounded=0;" edge="1" parent="WIyWlLk6GJQsqaUBKTNV-1">
          <mxGeometry width="50" height="50" relative="1" as="geometry">
            <mxPoint x="334" y="434.5" as="sourcePoint" />
            <mxPoint x="414" y="434.5" as="targetPoint" />
          </mxGeometry>
        </mxCell>
        <mxCell id="nR_B_YQcBqlcYutEYa7W-29" value="" style="endArrow=none;html=1;rounded=0;" edge="1" parent="WIyWlLk6GJQsqaUBKTNV-1">
          <mxGeometry width="50" height="50" relative="1" as="geometry">
            <mxPoint x="165" y="434.5" as="sourcePoint" />
            <mxPoint x="245" y="434.5" as="targetPoint" />
          </mxGeometry>
        </mxCell>
        <mxCell id="nR_B_YQcBqlcYutEYa7W-30" value="" style="endArrow=none;html=1;rounded=0;" edge="1" parent="WIyWlLk6GJQsqaUBKTNV-1">
          <mxGeometry width="50" height="50" relative="1" as="geometry">
            <mxPoint x="29" y="193" as="sourcePoint" />
            <mxPoint x="109" y="193" as="targetPoint" />
          </mxGeometry>
        </mxCell>
        <mxCell id="nR_B_YQcBqlcYutEYa7W-34" value="" style="endArrow=none;html=1;rounded=0;" edge="1" parent="WIyWlLk6GJQsqaUBKTNV-1">
          <mxGeometry width="50" height="50" relative="1" as="geometry">
            <mxPoint x="345" y="44" as="sourcePoint" />
            <mxPoint x="425" y="44" as="targetPoint" />
          </mxGeometry>
        </mxCell>
        <mxCell id="nR_B_YQcBqlcYutEYa7W-35" value="" style="endArrow=none;html=1;rounded=0;" edge="1" parent="WIyWlLk6GJQsqaUBKTNV-1">
          <mxGeometry width="50" height="50" relative="1" as="geometry">
            <mxPoint x="680" y="201" as="sourcePoint" />
            <mxPoint x="760" y="201" as="targetPoint" />
          </mxGeometry>
        </mxCell>
        <mxCell id="nR_B_YQcBqlcYutEYa7W-36" value="N:N" style="text;html=1;strokeColor=none;fillColor=none;align=center;verticalAlign=middle;whiteSpace=wrap;rounded=0;" vertex="1" parent="WIyWlLk6GJQsqaUBKTNV-1">
          <mxGeometry x="527" y="90" width="60" height="30" as="geometry" />
        </mxCell>
        <mxCell id="nR_B_YQcBqlcYutEYa7W-37" value="N:N" style="text;html=1;strokeColor=none;fillColor=none;align=center;verticalAlign=middle;whiteSpace=wrap;rounded=0;" vertex="1" parent="WIyWlLk6GJQsqaUBKTNV-1">
          <mxGeometry x="210" y="90" width="60" height="30" as="geometry" />
        </mxCell>
      </root>
    </mxGraphModel>
  </diagram>
</mxfile>
